HIERARCHY
ROOT ETY1
{
	OFFSET 0.000000 0.000000 0.000000
	CHANNELS 6 Xposition Yposition Zposition Xrotation Yrotation Zrotation
	JOINT N_ALL
	{
		OFFSET 0.000000 0.000000 0.000000
		CHANNELS 3 Xrotation Yrotation Zrotation
		JOINT locator2
		{
			OFFSET 0.000000 0.000000 63.674999
			CHANNELS 3 Xrotation Yrotation Zrotation
			JOINT hara
			{
				OFFSET -0.000000 -0.000000 0.472500
				CHANNELS 3 Xrotation Yrotation Zrotation
				JOINT mune
				{
					OFFSET -0.000005 -0.000000 14.647499
					CHANNELS 3 Xrotation Yrotation Zrotation
					JOINT kubi
					{
						OFFSET -0.565367 0.000000 13.797264
						CHANNELS 3 Xrotation Yrotation Zrotation
						JOINT kao
						{
							OFFSET 0.709599 -0.000000 1.686798
							CHANNELS 3 Xrotation Yrotation Zrotation
							JOINT ago
							{
								OFFSET 1.521274 -0.000001 2.195969
								CHANNELS 3 Xrotation Yrotation Zrotation
								End Site
								{
									OFFSET -0.000000 0.000000 0.365990
								}
							}
							JOINT eyebrow
							{
								OFFSET 2.744157 -0.000001 4.250847
								CHANNELS 3 Xrotation Yrotation Zrotation
								End Site
								{
									OFFSET -0.000000 0.000000 0.365990
								}
							}
							JOINT lip
							{
								OFFSET 1.419795 -0.000001 0.927528
								CHANNELS 3 Xrotation Yrotation Zrotation
								End Site
								{
									OFFSET 0.365992 -0.000000 0.000000
								}
							}
						}
					}
					JOINT L_sako
					{
						OFFSET -0.472501 6.525000 10.465401
						CHANNELS 3 Xrotation Yrotation Zrotation
						JOINT L_kata
						{
							OFFSET -0.000001 5.850000 -0.581734
							CHANNELS 3 Xrotation Yrotation Zrotation
							JOINT L_hiji
							{
								OFFSET -0.483016 15.785759 -0.000015
								CHANNELS 3 Xrotation Yrotation Zrotation
								JOINT L_te
								{
									OFFSET 0.611527 17.032738 -0.013641
									CHANNELS 3 Xrotation Yrotation Zrotation
									JOINT LeftHandIndex1
									{
										OFFSET 2.549848 6.470253 0.791817
										CHANNELS 3 Xrotation Yrotation Zrotation
										JOINT LeftHandIndex2
										{
											OFFSET -0.000001 2.289848 0.000000
											CHANNELS 3 Xrotation Yrotation Zrotation
											JOINT LeftHandIndex3
											{
												OFFSET -0.000001 2.268135 0.000000
												CHANNELS 3 Xrotation Yrotation Zrotation
												End Site
												{
													OFFSET 0.000000 0.365993 0.000000
												}
											}
										}
									}
									JOINT LeftHandMiddle1
									{
										OFFSET 0.874708 6.694298 1.118919
										CHANNELS 3 Xrotation Yrotation Zrotation
										JOINT LeftHandMiddle2
										{
											OFFSET -0.000001 2.683815 0.000000
											CHANNELS 3 Xrotation Yrotation Zrotation
											JOINT LeftHandMiddle3
											{
												OFFSET -0.000001 2.217308 0.000000
												CHANNELS 3 Xrotation Yrotation Zrotation
												End Site
												{
													OFFSET -0.000000 0.365993 0.000000
												}
											}
										}
									}
									JOINT LeftHandPinky1
									{
										OFFSET -2.442180 5.931721 0.497902
										CHANNELS 3 Xrotation Yrotation Zrotation
										JOINT LeftHandPinky2
										{
											OFFSET -0.000000 2.137306 0.000000
											CHANNELS 3 Xrotation Yrotation Zrotation
											JOINT LeftHandPinky3
											{
												OFFSET -0.000000 1.836044 0.000000
												CHANNELS 3 Xrotation Yrotation Zrotation
												End Site
												{
													OFFSET 0.000000 0.365993 0.000000
												}
											}
										}
									}
									JOINT LeftHandRing1
									{
										OFFSET -0.853656 6.338440 0.870934
										CHANNELS 3 Xrotation Yrotation Zrotation
										JOINT LeftHandRing2
										{
											OFFSET -0.000001 2.531284 0.000000
											CHANNELS 3 Xrotation Yrotation Zrotation
											JOINT LeftHandRing3
											{
												OFFSET -0.000001 2.217308 0.000000
												CHANNELS 3 Xrotation Yrotation Zrotation
												End Site
												{
													OFFSET -0.000000 0.365993 0.000000
												}
											}
										}
									}
									JOINT LeftHandThumb1
									{
										OFFSET 2.594638 1.377514 -1.567856
										CHANNELS 3 Xrotation Yrotation Zrotation
										JOINT LeftHandThumb2
										{
											OFFSET 1.626614 2.409187 0.000557
											CHANNELS 3 Xrotation Yrotation Zrotation
											JOINT LeftHandThumb3
											{
												OFFSET 0.823900 2.113201 0.000290
												CHANNELS 3 Xrotation Yrotation Zrotation
												End Site
												{
													OFFSET 0.000000 0.365993 0.000000
												}
											}
										}
									}
								}
							}
						}
					}
					JOINT R_sako
					{
						OFFSET -0.472506 -6.525000 10.465546
						CHANNELS 3 Xrotation Yrotation Zrotation
						JOINT R_kata
						{
							OFFSET 0.000002 -5.850000 -0.581696
							CHANNELS 3 Xrotation Yrotation Zrotation
							JOINT R_hiji
							{
								OFFSET -0.483008 -15.785765 -0.000015
								CHANNELS 3 Xrotation Yrotation Zrotation
								JOINT R_te
								{
									OFFSET 0.611537 -17.032732 -0.013748
									CHANNELS 3 Xrotation Yrotation Zrotation
									JOINT RightHandIndex1
									{
										OFFSET 2.550124 -6.470253 0.790878
										CHANNELS 3 Xrotation Yrotation Zrotation
										JOINT RightHandIndex2
										{
											OFFSET 0.000001 -2.289848 0.000000
											CHANNELS 3 Xrotation Yrotation Zrotation
											JOINT RightHandIndex3
											{
												OFFSET 0.000001 -2.268135 0.000000
												CHANNELS 3 Xrotation Yrotation Zrotation
												End Site
												{
													OFFSET 0.000000 -0.365993 0.000000
												}
											}
										}
									}
									JOINT RightHandMiddle1
									{
										OFFSET 0.875098 -6.694302 1.118561
										CHANNELS 3 Xrotation Yrotation Zrotation
										JOINT RightHandMiddle2
										{
											OFFSET 0.000001 -2.683807 0.000000
											CHANNELS 3 Xrotation Yrotation Zrotation
											JOINT RightHandMiddle3
											{
												OFFSET 0.000001 -2.217308 0.000000
												CHANNELS 3 Xrotation Yrotation Zrotation
												End Site
												{
													OFFSET 0.000000 -0.365993 0.000000
												}
											}
										}
									}
									JOINT RightHandPinky1
									{
										OFFSET -2.442005 -5.931721 0.498680
										CHANNELS 3 Xrotation Yrotation Zrotation
										JOINT RightHandPinky2
										{
											OFFSET 0.000000 -2.137306 0.000000
											CHANNELS 3 Xrotation Yrotation Zrotation
											JOINT RightHandPinky3
											{
												OFFSET 0.000000 -1.836044 0.000000
												CHANNELS 3 Xrotation Yrotation Zrotation
												End Site
												{
													OFFSET 0.000000 -0.365993 0.000000
												}
											}
										}
									}
									JOINT RightHandRing1
									{
										OFFSET -0.853352 -6.338440 0.871170
										CHANNELS 3 Xrotation Yrotation Zrotation
										JOINT RightHandRing2
										{
											OFFSET 0.000001 -2.531284 0.000000
											CHANNELS 3 Xrotation Yrotation Zrotation
											JOINT RightHandRing3
											{
												OFFSET 0.000001 -2.217308 0.000000
												CHANNELS 3 Xrotation Yrotation Zrotation
												End Site
												{
													OFFSET 0.000000 -0.365993 0.000000
												}
											}
										}
									}
									JOINT RightHandThumb1
									{
										OFFSET 2.594098 -1.377514 -1.568817
										CHANNELS 3 Xrotation Yrotation Zrotation
										JOINT RightHandThumb2
										{
											OFFSET 1.626616 -2.409184 0.000000
											CHANNELS 3 Xrotation Yrotation Zrotation
											JOINT RightHandThumb3
											{
												OFFSET 0.823900 -2.113201 0.000000
												CHANNELS 3 Xrotation Yrotation Zrotation
												End Site
												{
													OFFSET 0.000000 -0.365993 0.000000
												}
											}
										}
									}
								}
							}
						}
					}
				}
			}
			JOINT koshi
			{
				OFFSET 0.000000 0.000000 0.000000
				CHANNELS 3 Xrotation Yrotation Zrotation
				JOINT L_momo
				{
					OFFSET 0.000005 5.033075 -8.541428
					CHANNELS 3 Xrotation Yrotation Zrotation
					JOINT L_hiza
					{
						OFFSET 0.236263 0.000015 -23.625002
						CHANNELS 3 Xrotation Yrotation Zrotation
						JOINT L_ashi
						{
							OFFSET -0.944986 0.000017 -25.908707
							CHANNELS 3 Xrotation Yrotation Zrotation
							JOINT L_ashi2
							{
								OFFSET 3.767458 0.000001 -3.875652
								CHANNELS 3 Xrotation Yrotation Zrotation
								End Site
								{
									OFFSET 0.365992 0.000000 0.000000
								}
							}
						}
					}
				}
				JOINT R_momo
				{
					OFFSET 0.000001 -5.033065 -8.541435
					CHANNELS 3 Xrotation Yrotation Zrotation
					JOINT R_hiza
					{
						OFFSET 0.236263 0.000015 -23.624998
						CHANNELS 3 Xrotation Yrotation Zrotation
						JOINT R_ashi
						{
							OFFSET -0.944986 0.000017 -25.908707
							CHANNELS 3 Xrotation Yrotation Zrotation
							JOINT R_ashi2
							{
								OFFSET 3.767459 0.000001 -3.875652
								CHANNELS 3 Xrotation Yrotation Zrotation
								End Site
								{
									OFFSET 0.365992 0.000000 0.000000
								}
							}
						}
					}
				}
			}
		}
	}
}
MOTION
Frames: 4
Frame Time: 0.041667
-0.000001 74.553719 0.000000 -0.000000 0.000000 -89.999982 -0.000000 0.000000 -0.000000 -0.000000 0.000003 0.000000 3.099536 57.086721 7.516595 11.237202 3.086807 11.009232 -36.514912 15.158968 2.218185 18.991812 -53.323270 4.840130 0.000003 9.933289 0.000000 0.000000 1.999889 -0.000018 -0.000003 -2.149969 0.000004 -24.998738 -5.609249 5.152148 -8.591518 -37.873303 40.749417 -38.075439 25.159326 -71.199374 -49.290630 3.507069 -29.007417 -74.128870 11.593537 0.286453 -96.095045 0.021991 -0.019442 -96.095045 0.021898 -0.019607 -63.264620 0.010877 -0.017695 -95.048079 0.021526 -0.019747 -95.048250 0.021530 -0.019748 -84.444477 -10.119175 -0.020073 -89.056712 0.019459 -0.019713 -102.105830 0.023940 -0.019279 -75.502660 0.014777 -0.019308 -94.514880 0.021176 -0.020214 -94.514874 0.021168 -0.020214 -19.239094 1.320694 4.679949 -0.015061 -0.007118 49.512680 -0.017423 -0.010413 61.620976 -13.626925 1.349491 -6.274529 16.087049 -16.013307 -4.491426 13.536842 9.912104 110.408546 -10.388089 -0.439251 -0.618539 3.941457 7.594729 11.941675 15.490389 -0.000044 0.000004 56.689173 -0.000005 0.000073 -0.303211 0.000001 0.000002 33.940474 0.000018 0.000021 74.866858 0.000050 0.000028 41.660756 -9.659951 -3.314625 46.803936 -0.000173 0.000123 83.565343 0.000028 0.000086 16.136153 0.000315 0.000124 31.637648 -0.000009 0.000055 76.075439 -0.000204 0.000322 25.891082 25.744349 10.416986 0.000005 -0.000045 -20.916129 0.000017 -0.000045 -11.956601 -3.525857 18.492852 19.736784 24.895104 13.372082 12.358640 -0.113415 36.453160 -4.171659 23.467032 38.576570 -38.830558 -0.000004 19.884921 0.000011 -37.397297 -60.387458 -46.341505 -0.067625 78.217626 -1.330678 9.802893 -28.925134 8.498712 -0.000004 -0.000038 0.000000 
-0.000001 82.835945 0.000000 -0.000000 0.000000 -89.999982 -0.000000 0.000000 -0.000000 -0.000000 0.000003 0.000000 3.782971 56.223054 6.239565 10.929910 2.721722 10.379111 -37.092008 13.269740 2.551178 18.486595 -51.617454 4.188908 0.000003 10.587669 0.000004 0.000000 1.999890 -0.000015 -0.000005 -1.971432 0.000005 -25.666408 -6.309917 5.117719 -8.912144 -38.885428 38.156842 -38.941419 26.566970 -71.775589 -45.936758 1.398411 -25.443670 -74.128870 11.593537 0.286455 -96.095045 0.021991 -0.019443 -96.095045 0.021899 -0.019605 -63.264620 0.010874 -0.017694 -95.048079 0.021527 -0.019747 -95.048250 0.021529 -0.019746 -84.444477 -10.119183 -0.020072 -89.056712 0.019461 -0.019717 -102.105830 0.023939 -0.019279 -75.502653 0.014772 -0.019307 -94.514880 0.021176 -0.020214 -94.514874 0.021168 -0.020215 -19.239092 1.320693 4.679954 -0.015060 -0.007115 49.512670 -0.017423 -0.010415 61.620976 -12.528398 1.274610 -6.272357 19.855792 -15.984833 -5.937635 14.067977 9.881846 109.089712 -10.346648 -0.669962 -0.510272 0.691846 7.766871 12.588982 17.534477 -0.000042 0.000007 56.236250 -0.000005 0.000070 -3.363717 0.000002 -0.000006 31.576566 0.000016 0.000020 73.858107 0.000052 0.000029 42.812015 -9.644972 -3.329245 48.001702 -0.000169 0.000128 82.376514 0.000032 0.000086 15.987868 0.000317 0.000126 33.233330 -0.000007 0.000058 75.128406 -0.000205 0.000318 25.859919 27.921496 11.451753 0.000009 -0.000045 -21.297892 0.000022 -0.000046 -14.853928 -3.671511 16.607509 20.346345 28.356811 14.223367 11.894611 -0.151718 44.192932 -3.951849 35.620297 45.452430 -51.566692 -0.000005 23.616940 0.000012 -29.774171 -59.359084 -36.268605 -0.038780 67.250609 -3.119303 1.639201 -30.429968 -1.849729 -0.000002 -0.000037 0.000000 
-0.000001 91.122726 0.000000 -0.000000 0.000000 -89.999982 -0.000000 0.000000 -0.000000 -0.000000 0.000003 0.000000 2.719460 56.163365 7.860350 11.054348 3.061177 11.114944 -36.403030 10.885287 -0.087117 17.342730 -48.886034 2.742872 0.000003 9.861215 0.000002 0.000001 1.999891 -0.000017 -0.000004 -1.792899 0.000003 -24.737070 -6.829361 3.697466 -10.124295 -38.632930 34.946444 -40.848336 28.870547 -73.779970 -41.544598 -1.384483 -21.572686 -74.128870 11.593538 0.286455 -96.095045 0.021990 -0.019441 -96.095045 0.021895 -0.019604 -63.264620 0.010880 -0.017696 -95.048079 0.021525 -0.019744 -95.048250 0.021528 -0.019748 -84.444477 -10.119176 -0.020072 -89.056712 0.019461 -0.019710 -102.105830 0.023935 -0.019279 -75.502653 0.014778 -0.019309 -94.514880 0.021174 -0.020214 -94.514874 0.021167 -0.020216 -19.239091 1.320695 4.679944 -0.015061 -0.007117 49.512677 -0.017423 -0.010412 61.620976 -12.031925 1.483279 -7.913255 22.724876 -16.127098 -6.052341 13.493352 9.069279 107.511221 -10.296478 -0.902157 -0.403586 -0.933670 8.025719 12.937911 19.578555 -0.000039 0.000010 55.783265 -0.000005 0.000071 -4.468213 -0.000002 -0.000004 31.860466 0.000014 0.000020 74.528634 0.000050 0.000027 43.964012 -9.629596 -3.343610 49.199529 -0.000168 0.000129 81.187747 0.000028 0.000083 15.837178 0.000313 0.000124 34.829020 -0.000005 0.000063 75.697805 -0.000200 0.000320 25.864931 29.396113 12.132720 0.000006 -0.000046 -21.679654 0.000021 -0.000047 -17.753497 -4.593837 16.585152 19.198181 30.778632 4.956665 9.928379 -0.332202 67.546254 -2.955330 30.355014 40.062826 -34.208572 -0.000004 22.258695 0.000012 -19.143261 -52.729112 -28.668817 -0.049192 70.609505 -3.938160 2.976654 -32.205612 -2.946311 0.178703 -0.107754 -0.000000 
-0.000001 99.404953 0.000000 -0.000000 0.000000 -89.999982 -0.000000 0.000000 -0.000000 -0.000000 0.000003 0.000000 0.291662 56.611794 12.172947 11.459931 3.963881 12.973552 -35.133759 7.867389 -6.125213 16.004156 -46.150212 1.068332 0.000003 9.134018 0.000002 0.000001 1.999890 -0.000016 -0.000004 -2.038014 0.000003 -23.910462 -7.956029 1.533689 -11.766458 -37.262299 31.703908 -44.081191 32.054132 -76.565109 -37.206984 -3.707401 -17.320829 -74.128870 11.593542 0.286452 -96.095038 0.021988 -0.019446 -96.095045 0.021897 -0.019605 -63.264620 0.010880 -0.017696 -95.048079 0.021524 -0.019750 -95.048250 0.021529 -0.019746 -84.444477 -10.119175 -0.020072 -89.056712 0.019459 -0.019716 -102.105830 0.023934 -0.019278 -75.502653 0.014780 -0.019307 -94.514880 0.021173 -0.020218 -94.514874 0.021165 -0.020214 -19.239094 1.320697 4.679949 -0.015061 -0.007119 49.512680 -0.017423 -0.010415 61.620976 -11.525090 1.871117 -10.727444 25.129750 -14.888074 -1.442725 12.173207 6.697230 101.667728 -10.253897 -1.134552 -0.296868 -1.529405 8.354770 13.099891 21.625624 -0.000043 0.000013 57.811022 -0.000001 0.000073 -5.572704 0.000006 -0.000005 32.144363 0.000018 0.000018 75.199167 0.000050 0.000029 45.197496 -9.618921 -2.873603 50.397299 -0.000164 0.000135 79.995701 0.000027 0.000085 15.688898 0.000317 0.000122 36.421731 -0.000003 0.000064 76.267217 -0.000199 0.000323 25.800328 30.711307 12.545982 0.000005 -0.000045 -22.061421 0.000027 -0.000048 -20.650829 -5.751937 18.437428 17.203189 27.142789 -7.250523 9.506278 16.428970 90.383750 -18.896157 25.330136 29.885015 -20.675474 -0.000004 18.140672 0.000009 -12.934530 -46.596128 -25.357381 -0.055756 72.576135 -3.557250 5.508797 -37.500003 -1.741644 -1.015018 -5.659321 -0.104200 
